# xmcd CD database file
#
# Track frame offsets:
#	150
#	23017
#	29147
#	36047
#	51742
#	72125
#	79927
#	97845
#	104032
#	125692
#	133012
#	140150
#	158162
#	178050
#	186817
#
# Disc length: 2755 seconds
#
# Revision: 0
# Processed by: cddbd v1.5.1PL0 Copyright (c) Steve Scherf et al.
# Submitted via: CDex 1.51
#
DISCID=de0ac10f
DTITLE=Various Artist - アンジェリーク 永遠のヴァカンス Vol．2〜La Foret〜
DYEAR=2000
DGENRE=Game
TTITLE0=結城比呂/Lily Sweet Lily
TTITLE1=結城比呂/CHAINED INDIVIDUALS
TTITLE2=岩田光央/SEASIDE WALKING
TTITLE3=岩田光央/You gotta shake it
TTITLE4=立木文彦/YO−HO〜風と歌おう〜
TTITLE5=立木文彦/STARS IN YOUR EYES
TTITLE6=堀内賢雄/Build a Fire！
TTITLE7=堀内賢雄/SUNBURST
TTITLE8=関俊彦/終わらないHigh Noon
TTITLE9=関俊彦/CARNIVAL
TTITLE10=私市淳/DANCE ON POOLSIDE
TTITLE11=私市淳/宝石の島
TTITLE12=真殿光昭/夢か？うつつか？
TTITLE13=真殿光昭/VELVET LOVE
TTITLE14=lullaby〜永遠のオルゴール〜
EXTD=YEAR: 2000
EXTT0=
EXTT1=
EXTT2=
EXTT3=
EXTT4=
EXTT5=
EXTT6=
EXTT7=
EXTT8=
EXTT9=
EXTT10=
EXTT11=
EXTT12=
EXTT13=
EXTT14=
PLAYORDER=
